<svg width="56" height="56" viewBox="0 0 56 56" fill="none" xmlns="http://www.w3.org/2000/svg">
<g clip-path="url(#clip0_8_472)">
<path d="M54.8911 30.6024L30.6022 54.8908C29.1954 56.2962 26.9169 56.2962 25.5119 54.8908L1.10912 30.4896C-0.296789 29.0841 -0.296789 26.8048 1.10912 25.3979L17.8413 8.66637L24.1777 15.0038C23.528 16.5601 23.833 18.4199 25.1004 19.6862C25.5146 20.1017 25.9921 20.4119 26.5025 20.6207V35.9658C25.9921 36.1751 25.5138 36.4871 25.1004 36.9001C23.4273 38.573 23.4273 41.2829 25.1004 42.9576C26.7718 44.6306 29.4835 44.6306 31.1568 42.9576C32.8297 41.2829 32.8297 38.573 31.1568 36.9001C30.8167 36.5617 30.4318 36.2924 30.0239 36.0905L30.0244 20.8863L35.8022 26.6641C35.165 28.2144 35.4761 30.0629 36.7342 31.3219C38.4085 32.9957 41.1188 32.9957 42.7927 31.3219C44.4656 29.6485 44.4656 26.9382 42.7927 25.2656C41.5956 24.0666 39.8663 23.7327 38.3676 24.2491L32.1726 18.0542C32.6898 16.555 32.3536 14.8276 31.1569 13.6296C29.9662 12.4387 28.2535 12.1004 26.7594 12.6049L20.3318 6.17699L25.3987 1.10932C26.8048 -0.296368 29.0842 -0.296368 30.4882 1.10932L54.8911 25.5107C56.2966 26.9164 56.2966 29.1964 54.8911 30.6024Z" fill="#F34213"/>
</g>
<defs>
<clipPath id="clip0_8_472">
<rect width="56" height="56" fill="white"/>
</clipPath>
</defs>
</svg>
