<svg width="48" height="52" viewBox="0 0 48 52" fill="none" xmlns="http://www.w3.org/2000/svg">
<rect x="2" y="5" width="43" height="45" fill="#F4FAFF"/>
<path d="M0 0V52H48V0H0ZM25.7143 40.3929C25.7143 45.4547 22.9543 47.9224 18.9589 47.9224C15.3504 47.9224 13.2557 45.8981 12.1929 43.4548L15.8657 41.0463C16.5739 42.4079 17.1118 43.5593 18.6579 43.5593C19.9436 43.5593 21 42.9313 21 40.488V24.1429H25.7143V40.3929ZM36.3589 47.8063C32.1707 47.8063 29.4643 45.7588 28.1432 42.9313L31.8214 40.625C32.7857 42.3359 34.0446 43.4757 36.2679 43.4757C38.1364 43.4757 39.2218 42.5796 39.2218 41.1833C39.2218 39.5084 38.1043 38.9153 36.0418 37.9333L34.9146 37.4087C31.6596 35.909 29.5018 34.024 29.5018 30.0439C29.5018 26.3796 32.0786 23.7029 36.1061 23.7029C38.9743 23.7029 41.0346 24.6687 42.5186 27.4962L39 29.9464C38.2264 28.4456 37.3929 27.8571 36.1007 27.8571C34.7796 27.8571 33.9418 28.7648 33.9418 29.9464C33.9418 31.4124 34.7796 32.0055 36.7125 32.9132L37.8396 33.4367C41.6743 35.2172 43.8332 37.0349 43.8332 41.116C43.8343 45.5151 40.6446 47.8063 36.3589 47.8063Z" fill="#F34213"/>
</svg>
