<svg width="37" height="28" viewBox="0 0 37 28" fill="none" xmlns="http://www.w3.org/2000/svg">
<path fill-rule="evenodd" clip-rule="evenodd" d="M34.6875 23.125C34.6875 23.3597 34.6424 23.5817 34.5777 23.7933L24.2812 12.7188L34.6875 4.625V23.125ZM4.11162 25.3751L14.5456 14.2565L18.5 17.2455L22.2833 14.2381L32.8884 25.3751C32.723 25.4132 4.27697 25.4132 4.11162 25.3751ZM2.3125 23.125V4.625L12.7188 12.7188L2.42235 23.7933C2.3576 23.5817 2.3125 23.3597 2.3125 23.125ZM33.5312 2.3125L18.5 13.875L3.46875 2.3125H33.5312ZM32.375 0H4.625C2.07084 0 0 2.07084 0 4.625V23.125C0 25.6792 2.07084 27.75 4.625 27.75H32.375C34.9292 27.75 37 25.6792 37 23.125V4.625C37 2.07084 34.9292 0 32.375 0Z" fill="#F4FAFF"/>
</svg>
