<svg width="54" height="54" viewBox="0 0 54 54" fill="none" xmlns="http://www.w3.org/2000/svg">
<path d="M0.158203 26.9473C0.158203 31.0005 4.11602 34.7841 10.3556 36.9168C9.10955 43.1895 10.1324 48.2455 13.5483 50.2154C17.0594 52.2404 22.2902 50.8387 27.255 46.4987C32.0946 50.6634 36.9856 52.3024 40.3985 50.3268C43.9064 48.2961 44.9731 42.8973 43.6927 36.4287C50.1917 34.2801 53.827 31.0538 53.827 26.9473C53.827 22.9882 49.862 19.5632 43.7065 17.4441C45.0849 10.7083 43.917 5.77508 40.3595 3.72371C36.9299 1.74596 31.9819 3.46974 27.0713 7.74334C21.9624 3.20734 17.0634 1.82253 13.5097 3.8796C10.0832 5.86304 9.10554 11.011 10.3556 17.3996C4.32654 19.5016 0.158203 23.0042 0.158203 26.9473Z" fill="#F4FAFF"/>
<path d="M42.4032 19.5484C41.8959 19.3744 41.3843 19.2132 40.8689 19.065C40.9544 18.7176 41.0334 18.3687 41.106 18.0185C42.2674 12.3806 41.508 7.83865 38.9148 6.34352C36.4284 4.90957 32.362 6.40469 28.255 9.97861C27.8503 10.3316 27.4546 10.6947 27.0683 11.0677C26.8096 10.8197 26.5463 10.5765 26.2785 10.3383C21.9744 6.51649 17.6601 4.90619 15.0695 6.40575C12.5855 7.84371 11.8498 12.1137 12.8954 17.4568C12.9994 17.9859 13.1169 18.5123 13.2477 19.0354C12.6372 19.2088 12.0476 19.3936 11.4836 19.5902C6.43755 21.3494 3.21484 24.1068 3.21484 26.9667C3.21484 29.9206 6.67422 32.8835 11.9304 34.6798C12.3566 34.8248 12.7863 34.9591 13.2192 35.0827C13.0786 35.6463 12.9537 36.2137 12.8448 36.7843C11.8479 42.0346 12.6265 46.2033 15.1039 47.6324C17.6628 49.1079 21.9575 47.5913 26.1395 43.9357C26.4701 43.6468 26.8019 43.3403 27.1341 43.019C27.5526 43.4228 27.9822 43.8148 28.4225 44.1946C32.4734 47.6803 36.474 49.0879 38.9493 47.655C41.5059 46.1751 42.3366 41.6966 41.2578 36.2479C41.1756 35.8317 41.0796 35.4067 40.972 34.9739C41.2737 34.8848 41.5696 34.7929 41.8584 34.6971C47.3225 32.8868 50.8774 29.9601 50.8774 26.9667C50.8774 24.0964 47.551 21.3205 42.4032 19.5484Z" fill="#00AFB5"/>
<path d="M41.2191 32.7645C40.9586 32.8508 40.6911 32.9341 40.4186 33.0149C39.8153 31.1053 39.0011 29.0746 38.0051 26.9768C38.9558 24.9286 39.7383 22.9241 40.3247 21.0267C40.8122 21.168 41.2856 21.3167 41.7416 21.4739C46.1523 22.992 48.8426 25.237 48.8426 26.9667C48.8426 28.8092 45.9367 31.2013 41.2191 32.7645ZM39.2616 36.6434C39.7385 39.0528 39.8067 41.2311 39.4907 42.934C39.2068 44.4642 38.636 45.4843 37.9302 45.8928C36.4281 46.7623 33.2157 45.6321 29.7517 42.6512C29.3545 42.3094 28.9544 41.9445 28.5532 41.5585C29.8962 40.0895 31.2384 38.3818 32.5483 36.4855C34.8526 36.2811 37.0295 35.9467 39.0036 35.4905C39.1007 35.8828 39.1872 36.2673 39.2616 36.6434ZM19.4651 45.7427C17.9976 46.2609 16.8288 46.2757 16.1224 45.8684C14.6188 45.0014 13.994 41.6538 14.8464 37.164C14.9478 36.6334 15.0639 36.1058 15.1945 35.5816C17.1467 36.0134 19.3078 36.3241 21.6175 36.5114C22.9361 38.367 24.3171 40.0727 25.7089 41.5663C25.4131 41.8524 25.1103 42.1312 24.8008 42.4025C22.9515 44.0191 21.0982 45.1657 19.4651 45.7427ZM12.59 32.7531C10.2659 31.9587 8.34662 30.9264 7.031 29.8C5.84891 28.7875 5.25195 27.7824 5.25195 26.9667C5.25195 25.2313 7.83952 23.0175 12.1551 21.5129C12.6968 21.3249 13.2438 21.1527 13.7956 20.9967C14.3921 22.9367 15.1745 24.9651 16.1186 27.0163C15.1622 29.098 14.3687 31.1586 13.7667 33.1214C13.3715 33.0083 12.9792 32.8855 12.59 32.7531ZM14.8947 17.0657C13.9989 12.4877 14.5937 9.03447 16.0908 8.16794C17.6855 7.24488 21.2113 8.56113 24.9276 11.8608C25.1651 12.0718 25.4037 12.2926 25.6426 12.5211C24.2581 14.008 22.8897 15.7007 21.5825 17.5456C19.3409 17.7534 17.195 18.0871 15.2223 18.534C15.1008 18.0474 14.9916 17.5579 14.8947 17.0657ZM35.4542 22.1423C34.9882 21.3375 34.505 20.5428 34.0048 19.7587C35.5257 19.9507 36.9826 20.2059 38.3508 20.5183C37.9401 21.8348 37.4281 23.2114 36.8253 24.6225C36.3848 23.7868 35.9277 22.9599 35.4542 22.1423ZM27.0701 13.9761C28.0092 14.9935 28.9497 16.1296 29.8749 17.3621C27.9982 17.2734 26.1183 17.273 24.2416 17.3608C25.1676 16.1397 26.1162 15.0053 27.0701 13.9761ZM18.6321 22.1563C18.1646 22.9673 17.716 23.7891 17.2868 24.6211C16.6938 23.2147 16.1865 21.832 15.7722 20.4968C17.1322 20.1924 18.5824 19.9437 20.0933 19.7549C19.5875 20.5438 19.1003 21.3445 18.6321 22.1563ZM20.1368 34.3238C18.5758 34.1495 17.1037 33.9135 15.7442 33.6175C16.165 32.2587 16.6835 30.8463 17.2891 29.4098C17.7201 30.2423 18.1707 31.0647 18.6404 31.876C19.1196 32.7037 19.6186 33.5199 20.1368 34.3238ZM27.1264 40.1011C26.1613 39.0597 25.1988 37.908 24.2587 36.6692C25.1712 36.705 26.1016 36.7232 27.0473 36.7232C28.0189 36.7232 28.9793 36.7015 29.9245 36.6593C28.9963 37.9207 28.0591 39.0741 27.1264 40.1011ZM36.8447 29.3366C37.4817 30.7887 38.0188 32.1935 38.4453 33.5294C37.0632 33.8447 35.5713 34.0987 33.9991 34.2873C34.5029 33.4886 34.9908 32.68 35.4624 31.8619C35.9419 31.0305 36.4027 30.1885 36.8447 29.3366ZM33.6986 30.8448C32.9766 32.099 32.214 33.3294 31.412 34.5341C29.9979 34.6351 28.5365 34.6872 27.0473 34.6872C25.5642 34.6872 24.1214 34.641 22.7319 34.5509C21.9091 33.3491 21.1321 32.1165 20.4025 30.856C19.6764 29.602 18.9981 28.321 18.3691 27.0156C18.9965 25.7098 19.6727 24.4281 20.3964 23.1732C21.1199 21.918 21.8908 20.6911 22.7075 19.4944C24.125 19.3873 25.5783 19.3312 27.0475 19.3312C28.5232 19.3312 29.9785 19.3877 31.3955 19.4957C32.2039 20.6906 32.9699 21.9136 33.692 23.1624C34.4182 24.4146 35.1035 25.69 35.7468 26.9867C35.1101 28.2966 34.4268 29.5835 33.6986 30.8448ZM37.899 8.1074C39.4949 9.02793 40.1157 12.7398 39.1129 17.6076C39.0472 17.9247 38.9757 18.2406 38.8986 18.5551C36.9213 18.0989 34.7739 17.7593 32.5257 17.5483C31.216 15.6834 29.8591 13.9877 28.4968 12.52C28.8538 12.1759 29.2193 11.8407 29.5929 11.5147C33.1117 8.45228 36.4005 7.24319 37.899 8.1074Z" fill="#F4FAFF"/>
<path d="M27.0471 22.7106C29.3978 22.7106 31.3032 24.6162 31.3032 26.9667C31.3032 29.3173 29.3978 31.223 27.0471 31.223C24.6966 31.223 22.791 29.3173 22.791 26.9667C22.791 24.6162 24.6966 22.7106 27.0471 22.7106Z" fill="#00AFB5"/>
</svg>
