<svg width="48" height="48" viewBox="0 0 48 48" fill="none" xmlns="http://www.w3.org/2000/svg">
<g clip-path="url(#clip0_39_8)">
<path d="M0 24V0H48V48H0" fill="#00AFB5"/>
<path d="M10.5234 24.084V26.04H16.7634V43.8H21.1914V26.04H27.4314V24.12C27.4314 23.04 27.4314 22.164 27.3834 22.14C27.3834 22.104 23.5794 22.092 18.9594 22.092L10.5594 22.128V24.096L10.5234 24.084ZM38.5674 22.08C39.7914 22.368 40.7274 22.92 41.5674 23.796C42.0114 24.276 42.6714 25.116 42.7194 25.332C42.7194 25.404 40.6434 26.808 39.3834 27.588C39.3354 27.624 39.1434 27.42 38.9514 27.108C38.3274 26.22 37.6914 25.836 36.6954 25.764C35.2554 25.668 34.2954 26.424 34.2954 27.684C34.2954 28.068 34.3674 28.284 34.5114 28.596C34.8354 29.256 35.4354 29.652 37.2954 30.468C40.7274 31.944 42.2154 32.916 43.1154 34.308C44.1354 35.868 44.3634 38.316 43.6794 40.152C42.9114 42.156 41.0394 43.512 38.3634 43.956C37.5234 44.1 35.6034 44.076 34.7034 43.92C32.7834 43.56 30.9474 42.6 29.8194 41.364C29.3754 40.884 28.5234 39.6 28.5714 39.516L29.0274 39.228L30.8274 38.184L32.1834 37.392L32.4954 37.812C32.8914 38.436 33.7794 39.276 34.2954 39.564C35.8554 40.368 37.9434 40.26 38.9754 39.324C39.4194 38.916 39.6114 38.484 39.6114 37.884C39.6114 37.332 39.5274 37.08 39.2514 36.66C38.8674 36.132 38.0994 35.7 35.9394 34.74C33.4554 33.684 32.3994 33.012 31.4154 31.98C30.8514 31.356 30.3354 30.384 30.0954 29.58C29.9154 28.884 29.8554 27.18 30.0234 26.496C30.5394 24.096 32.3514 22.416 34.9434 21.936C35.7834 21.768 37.7634 21.84 38.5914 22.056L38.5674 22.08Z" fill="white"/>
</g>
<defs>
<clipPath id="clip0_39_8">
<rect width="48" height="48" fill="white"/>
</clipPath>
</defs>
</svg>
