<svg width="53" height="53" viewBox="0 0 53 53" fill="none" xmlns="http://www.w3.org/2000/svg">
<path d="M39.9031 46.0004L26.4992 49.6095L13.0951 46.0004L10.002 12.4906H42.9966L39.9031 46.0004Z" fill="#00AFB5"/>
<path d="M26.5 15.2048V46.7309L26.5303 46.7392L37.3775 43.8183L39.8813 15.2048H26.5Z" fill="#00AFB5"/>
<path d="M18.8934 7.56733V5.57283H21.8034V3.39038H16.7109V9.55888H21.8034V7.56733H18.8934ZM27.0381 5.57283H29.0725V3.39038H23.9796V5.57283C24.661 6.2542 25.0163 6.58032 26.0018 7.56576C25.4257 7.56576 23.9796 7.56782 23.9796 7.56772V9.55888H29.0725V7.56733L27.0381 5.57283ZM34.2564 5.57283H36.2907V3.39038H31.1976V5.57283C31.879 6.2542 32.2345 6.58032 33.22 7.56576C32.6441 7.56576 31.1976 7.56782 31.1976 7.56772V9.55888H36.2908V7.56733L34.2564 5.57283Z" fill="#F4FAFF"/>
<path d="M26.4882 23.5836L16.8945 27.5791L17.2127 31.535L26.4882 27.5691L36.3549 23.3506L36.7639 19.304L26.4882 23.5836Z" fill="#F4FAFF"/>
<path d="M16.8945 27.5791L17.2127 31.5349L26.4881 27.5691V23.5836L16.8945 27.5791Z" fill="#F4FAFF"/>
<path d="M36.7641 19.3041L26.4883 23.5837V27.5691L36.355 23.3506L36.7641 19.3041Z" fill="#F4FAFF"/>
<path d="M16.9082 27.5791L17.2264 31.5349L31.4584 31.5803L31.1401 36.8547L26.4569 38.1731L21.9551 37.0364L21.6823 33.7627H17.4992L18.0449 40.0828L26.5024 42.5835L34.9141 40.1282L36.0054 27.5791H16.9082Z" fill="#F4FAFF"/>
<path opacity="0.05" d="M26.4882 27.5791H16.8945L17.2127 31.5349L26.4882 31.5646V27.5791ZM26.4882 38.1605L26.4427 38.1732L21.9414 37.0365L21.6686 33.7628H17.4857L18.0312 40.0829L26.4882 42.5836V38.1605Z" fill="#00AFB5"/>
<path d="M16.0293 19.3041H36.7627L36.3536 23.3507H16.5294L16.0293 19.3041Z" fill="#F4FAFF"/>
<path opacity="0.05" d="M26.4869 19.3041H16.0293L16.5294 23.3507H26.4869V19.3041Z" fill="#00AFB5"/>
</svg>
