<svg width="48" height="48" viewBox="0 0 48 48" fill="none" xmlns="http://www.w3.org/2000/svg">
<path d="M40.9595 9.4093L37.8693 44.0278L23.9785 47.8787L10.1261 44.0331L7.03906 9.4093H40.9595Z" fill="#F34213"/>
<path d="M24 44.9352L35.2244 41.8234L37.8651 12.2402H24V44.9352Z" fill="#F34213"/>
<path d="M17.9924 20.7333H23.9997V16.4868H13.3516L13.4531 17.6261L14.4969 29.3282H23.9997V25.0817H18.3805L17.9924 20.7333ZM18.9495 31.4515H14.6867L15.2815 38.1191L23.9802 40.5338L23.9997 40.5284V36.1103L23.9811 36.1152L19.2518 34.8382L18.9495 31.4515Z" fill="#F4FAFF"/>
<path d="M10.1953 0H12.3533V2.13208H14.3274V0H16.4856V6.45647H14.3276V4.29447H12.3535V6.45647H10.1954L10.1953 0ZM19.3233 2.14112H17.4238V0H23.3824V2.14112H21.4817V6.45647H19.3237V2.14112H19.3233ZM24.3281 0H26.5782L27.9624 2.26863L29.3452 0H31.5963V6.45647H29.447V3.25629L27.9624 5.55191H27.9251L26.4395 3.25629V6.45647H24.3281V0ZM32.6702 0H34.8289V4.32239H37.8637V6.45647H32.6701V0H32.6702Z" fill="#F4FAFF"/>
<path d="M23.9845 29.3282H29.2136L28.7206 34.8356L23.9844 36.1139V40.5318L32.6899 38.1191L32.7537 37.4017L33.7518 26.222L33.8554 25.0817H23.9845V29.3282ZM23.9845 20.7229V20.7333H34.2417L34.3268 19.7789L34.5204 17.6261L34.6219 16.4868H23.9845V20.7229Z" fill="#F4FAFF"/>
</svg>
