<svg width="40" height="40" viewBox="0 0 40 40" fill="none" xmlns="http://www.w3.org/2000/svg">
<g clip-path="url(#clip0_41_101)">
<path d="M0 2.86531C0 1.28375 1.32406 0 2.95625 0H37.0438C38.6766 0 40 1.28375 40 2.86531V37.1352C40 38.7172 38.6766 40 37.0438 40H2.95625C1.32422 40 0 38.7173 0 37.1356V2.86484V2.86531Z" fill="#F4FAFF"/>
<path d="M12.1548 33.4747V15.4666H6.16922V33.4747H12.1555H12.1548ZM9.16328 13.0083C11.2502 13.0083 12.5494 11.6255 12.5494 9.89736C12.5103 8.12986 11.2502 6.78564 9.20297 6.78564C7.15437 6.78564 5.81641 8.12986 5.81641 9.89721C5.81641 11.6253 7.11516 13.0081 9.12406 13.0081H9.16281L9.16328 13.0083ZM15.468 33.4747H21.4531V23.4192C21.4531 22.8817 21.4922 22.3428 21.6503 21.9589C22.0828 20.8831 23.0677 19.7696 24.7216 19.7696C26.8869 19.7696 27.7536 21.4208 27.7536 23.8419V33.4747H33.7386V23.1494C33.7386 17.6183 30.7861 15.0444 26.8481 15.0444C23.6195 15.0444 22.2016 16.8489 21.4137 18.078H21.4536V15.4672H15.4683C15.5464 17.1566 15.4678 33.4753 15.4678 33.4753L15.468 33.4747Z" fill="#0C1013"/>
</g>
<defs>
<clipPath id="clip0_41_101">
<rect width="40" height="40" fill="white"/>
</clipPath>
</defs>
</svg>
